<?xml version="1.0" encoding="UTF-8"?>
<svg id="Layer_3" xmlns="http://www.w3.org/2000/svg" version="1.1" viewBox="0 0 897.7 138.4">
  <!-- Generator: Adobe Illustrator 29.0.1, SVG Export Plug-In . SVG Version: 2.1.0 Build 192)  -->
  <defs>
    <style>
      .st0 {
        fill: #e7c552;
      }

      .st1 {
        fill: #4184a6;
      }

      .st2 {
        fill: #fff;
      }

      .st3 {
        fill: #a1ae70;
      }

      .st4 {
        fill: #df7538;
      }

      .st5 {
        fill: #df404a;
      }
    </style>
  </defs>
  <g>
    <path class="st2" d="M31,0h77.4v15.5h-61.9l-15.5,15.5v46.4l15.5,15.5h31v-31h-15.5v-15.5h46.4v61.9H31L0,77.4V31L31,0Z"/>
    <path class="st2" d="M139.3,31h77.4l15.5,15.5v61.9h-92.9l-15.5-15.5v-15.5l15.5-15.5h61.9v-15.5h-61.9v-15.5ZM201.2,92.9v-15.5h-46.4v15.5h46.4Z"/>
    <path class="st2" d="M247.7,31h92.9l15.5,15.5v61.9h-31v-61.9h-15.5v61.9h-31v-61.9h-15.5v61.9h-15.5V31Z"/>
    <path class="st2" d="M387,31h77.4l15.5,15.5v31h-77.4v15.5h61.9v15.5h-77.4l-15.5-15.5v-46.4l15.5-15.5ZM448.9,61.9v-15.5h-46.4v15.5h46.4Z"/>
    <g>
      <path class="st2" d="M479.8,0h92.9v15.5h-31v92.9h-31V15.5h-31V0Z"/>
      <path class="st2" d="M572.7,31h46.4v61.9h15.5v15.5h-61.9v-15.5h15.5v-46.4h-15.5v-15.5ZM588.2,0h31v15.5h-31V0Z"/>
      <path class="st2" d="M650.1,31h92.9l15.5,15.5v61.9h-31v-61.9h-15.5v61.9h-31v-61.9h-15.5v61.9h-15.5V31Z"/>
      <path class="st2" d="M789.4,31h77.4l15.5,15.5v31h-77.4v15.5h61.9v15.5h-77.4l-15.5-15.5v-46.4l15.5-15.5ZM851.3,61.9v-15.5h-46.4v15.5h46.4Z"/>
    </g>
  </g>
  <polygon class="st5" points="191.9 138.4 15.5 138.4 0 122.9 176.5 122.9 191.9 138.4"/>
  <polygon class="st4" points="368.4 138.4 191.9 138.4 176.5 122.9 352.9 122.9 368.4 138.4"/>
  <polygon class="st0" points="544.8 138.4 368.4 138.4 352.9 122.9 529.4 122.9 544.8 138.4"/>
  <polygon class="st3" points="721.3 138.4 544.8 138.4 529.4 122.9 705.8 122.9 721.3 138.4"/>
  <polygon class="st1" points="897.7 138.4 721.3 138.4 705.8 122.9 882.3 122.9 897.7 138.4"/>
</svg>